<?xml version="1.0" encoding="UTF-8"?>
<svg id="Layer_1" xmlns="http://www.w3.org/2000/svg" version="1.1" viewBox="0 0 32 32">
  <!-- Generator: Adobe Illustrator 29.0.1, SVG Export Plug-In . SVG Version: 2.1.0 Build 192)  -->
  <defs>
    <style>
      .st0 {
        fill: #34ace0;
      }
    </style>
  </defs>
  <path class="st0" d="M18,26.8c-.4,0-1-.2-1.3-.5s-.5-.8-.5-1.3.2-1,.5-1.3l5.9-5.9H5c-1,0-1.8-.8-1.8-1.8s.8-1.8,1.8-1.8h17.6l-5.9-5.9c-.4-.4-.5-.8-.5-1.3s.2-1,.5-1.3c.4-.4.8-.5,1.3-.5s1,.2,1.3.5l9,9c.4.4.5.8.5,1.3s-.2,1-.5,1.3l-9,9c-.4.4-.8.5-1.3.5Z"/>
</svg>